<svg aria-hidden="true" style="position: absolute; width: 0; height: 0; overflow: hidden;" version="1.1" xmlns="http://www.w3.org/2000/svg" xmlns:xlink="http://www.w3.org/1999/xlink">
<defs>
<symbol id="icon-figma" viewBox="0 0 32 32">
<path fill="#19bcfe" style="fill: var(--color1, #19bcfe)" opacity="0.78" d="M21.333 21.333c2.945 0 5.333-2.388 5.333-5.333s-2.388-5.333-5.333-5.333c-2.946 0-5.333 2.388-5.333 5.333s2.388 5.333 5.333 5.333z"></path>
<path fill="#09cf83" style="fill: var(--color2, #09cf83)" opacity="0.78" d="M10.667 32c1.415 0 2.771-0.562 3.771-1.562s1.562-2.357 1.562-3.771v-5.333h-5.333c-1.415 0-2.771 0.562-3.771 1.562s-1.562 2.357-1.562 3.771c0 1.415 0.562 2.771 1.562 3.771s2.357 1.562 3.771 1.562z"></path>
<path fill="#a259ff" style="fill: var(--color3, #a259ff)" opacity="0.78" d="M10.667 21.333h5.333v-10.667h-5.333c-1.415 0-2.771 0.562-3.771 1.562s-1.562 2.357-1.562 3.771c0 1.415 0.562 2.771 1.562 3.771s2.357 1.562 3.771 1.562z"></path>
<path fill="#f24e1e" style="fill: var(--color4, #f24e1e)" opacity="0.78" d="M10.667 10.667h5.333v-10.667h-5.333c-1.415 0-2.771 0.562-3.771 1.562s-1.562 2.357-1.562 3.771c0 1.414 0.562 2.771 1.562 3.771s2.357 1.562 3.771 1.562z"></path>
<path fill="#ff7262" style="fill: var(--color5, #ff7262)" opacity="0.78" d="M21.333 10.667h-5.333v-10.667h5.333c1.414 0 2.771 0.562 3.771 1.562s1.562 2.357 1.562 3.771c0 1.414-0.562 2.771-1.562 3.771s-2.357 1.562-3.771 1.562z"></path>
</symbol>
<symbol id="icon-invision" viewBox="0 0 33 32">
<path fill="#f06" style="fill: var(--color6, #f06)" opacity="0.78" d="M0 2c0-1.105 0.895-2 2-2h28.5c1.105 0 2 0.895 2 2v27.912c0 1.105-0.895 2-2 2h-28.5c-1.105 0-2-0.895-2-2v-27.912z"></path>
<path fill="#fff" style="fill: var(--color7, #fff)" opacity="0.78" d="M11.059 10.269c1.028-0.015 1.851-0.842 1.841-1.852s-0.849-1.821-1.877-1.816-1.859 0.824-1.859 1.834c0.001 0.243 0.051 0.483 0.147 0.707s0.236 0.427 0.412 0.598 0.385 0.305 0.614 0.396c0.229 0.091 0.475 0.136 0.722 0.134v-0z"></path>
<path fill="#fff" style="fill: var(--color7, #fff)" opacity="0.78" d="M7.129 20.089c-0.108 0.452-0.164 0.914-0.168 1.377 0 1.615 0.892 2.687 2.787 2.687 1.572 0 2.847-0.916 3.764-2.397l-0.56 2.208h3.12l1.785-7.021c0.446-1.779 1.309-2.702 2.619-2.702 1.031 0 1.672 0.629 1.672 1.67 0.005 0.333-0.042 0.666-0.139 0.985l-0.919 3.228c-0.131 0.445-0.197 0.905-0.195 1.368 0 1.532 0.919 2.655 2.842 2.655 1.645 0 2.955-1.039 3.679-3.529l-1.226-0.466c-0.614 1.67-1.143 1.971-1.56 1.971s-0.642-0.273-0.642-0.821c0.012-0.287 0.059-0.572 0.139-0.849l0.893-3.146c0.201-0.647 0.304-1.319 0.307-1.995 0-2.354-1.45-3.582-3.206-3.582-1.645 0-3.316 1.456-4.152 2.989l0.612-2.752h-4.765l-0.669 2.425h2.231l-1.373 5.392c-1.079 2.354-3.060 2.392-3.309 2.337-0.408-0.091-0.668-0.243-0.668-0.766 0.012-0.424 0.077-0.844 0.195-1.252l2.090-8.143h-5.294l-0.668 2.425h2.201l-1.424 5.702z"></path>
</symbol>
<symbol id="icon-notion" viewBox="0 0 32 32">
<path fill="#fff" style="fill: var(--color7, #fff)" opacity="0.78" d="M5.716 29.218l-3.439-4.285c-0.828-1.031-1.277-2.299-1.277-3.603v-15.515c0-1.954 1.564-3.576 3.581-3.714l15.951-1.089c1.159-0.079 2.311 0.229 3.263 0.873l5.605 3.789c1.003 0.678 1.601 1.787 1.601 2.97v17.639c0 1.913-1.537 3.496-3.512 3.618l-17.704 1.090c-1.576 0.097-3.099-0.567-4.067-1.773z"></path>
<path fill="#000" style="fill: var(--color8, #000)" opacity="0.78" d="M11.248 13.579v-0.203c0-0.515 0.412-0.942 0.944-0.977l3.871-0.258 5.354 7.884v-6.919l-1.378-0.184v-0.097c0-0.521 0.422-0.951 0.96-0.978l3.523-0.18v0.507c0 0.238-0.177 0.441-0.419 0.482l-0.848 0.143v11.206l-1.064 0.366c-0.889 0.306-1.878-0.022-2.387-0.789l-5.198-7.843v7.486l1.6 0.306-0.022 0.148c-0.070 0.465-0.471 0.816-0.957 0.838l-3.979 0.177c-0.053-0.5 0.322-0.947 0.839-1.001l0.523-0.055v-9.981l-1.362-0.077z"></path>
<path fill="#000" style="fill: var(--color8, #000)" opacity="0.78" d="M20.675 2.967l-15.951 1.089c-0.955 0.065-1.696 0.833-1.696 1.759v15.515c0 0.87 0.299 1.715 0.851 2.402l3.439 4.285c0.556 0.693 1.431 1.074 2.337 1.018l17.704-1.090c0.907-0.056 1.614-0.783 1.614-1.662v-17.639c0-0.544-0.275-1.053-0.735-1.365l-5.605-3.789c-0.571-0.386-1.262-0.571-1.958-0.523zM5.515 6.057c-0.222-0.164-0.116-0.506 0.162-0.526l15.105-1.083c0.481-0.035 0.959 0.098 1.349 0.374l3.031 2.147c0.115 0.082 0.061 0.258-0.081 0.265l-15.996 0.87c-0.484 0.026-0.962-0.116-1.347-0.401l-2.223-1.646zM8.334 10.831c0-0.52 0.42-0.949 0.957-0.978l16.913-0.921c0.523-0.028 0.964 0.374 0.964 0.88v15.273c0 0.519-0.418 0.948-0.954 0.978l-16.806 0.956c-0.582 0.033-1.073-0.414-1.073-0.978v-15.211z"></path>
</symbol>
<symbol id="icon-phpstorm" viewBox="0 0 32 32">
<path fill="#000" style="fill: var(--color8, #000)" d="M18.103 6.949l-1.509-4.571-11.154-2.377-5.44 6.171 17.006 8.686 1.097-7.909z"></path>
<path fill="#000" style="fill: var(--color8, #000)" d="M12.8 18.926l-0.32-9.509-12.48-3.246 3.063 18.331 9.737-0.091v-5.486z"></path>
<path fill="#000" style="fill: var(--color8, #000)" d="M10.103 18.743l0.594-7.543 9.051-9.28 8.091 1.463 4.16 10.377-4.343 4.297-7.086-1.143-4.389 4.617-6.080-2.789z"></path>
<path fill="#000" style="fill: var(--color8, #000)" d="M19.749 1.92l-12.983 11.52 2.514 14.811 10.789 3.749 11.931-7.131-12.251-22.949z"></path>
<path fill="#000" style="fill: var(--color8, #000)" d="M6.126 6.126h19.749v19.749h-19.749v-19.749z"></path>
<path fill="#fff" style="fill: var(--color7, #fff)" d="M8 22.171h7.406v1.234h-7.406v-1.234z"></path>
<path fill="#fff" style="fill: var(--color7, #fff)" d="M7.909 8.686h3.337c1.966 0 3.154 1.143 3.154 2.834v0.046c0 1.92-1.463 2.88-3.337 2.88h-1.371v2.469h-1.783v-8.229zM11.154 12.8c0.914 0 1.417-0.549 1.417-1.234v-0.046c0-0.823-0.549-1.234-1.463-1.234h-1.371v2.514h1.417z"></path>
<path fill="#fff" style="fill: var(--color7, #fff)" d="M14.857 15.726l1.051-1.28c0.731 0.594 1.509 1.006 2.469 1.006 0.731 0 1.189-0.274 1.189-0.777v-0.046c0-0.457-0.274-0.686-1.646-1.051-1.646-0.411-2.743-0.869-2.743-2.514v-0.046c0-1.509 1.189-2.469 2.88-2.469 1.189 0 2.24 0.366 3.063 1.051l-0.96 1.371c-0.731-0.503-1.463-0.823-2.149-0.823s-1.051 0.32-1.051 0.731v0.046c0 0.549 0.366 0.731 1.783 1.097 1.646 0.457 2.606 1.051 2.606 2.469v0.046c0 1.646-1.234 2.56-3.017 2.56-1.234-0.046-2.469-0.503-3.474-1.371z"></path>
</symbol>
<symbol id="icon-procreate" viewBox="0 0 32 32">
<path fill="#1e252b" style="fill: var(--color9, #1e252b)" opacity="0.78" d="M2 12.133c0-3.547 0-5.321 0.69-6.675 0.607-1.192 1.576-2.161 2.768-2.768 1.355-0.69 3.128-0.69 6.675-0.69h7.733c3.547 0 5.32 0 6.675 0.69 1.192 0.607 2.161 1.576 2.768 2.768 0.69 1.355 0.69 3.128 0.69 6.675v7.733c0 3.547 0 5.32-0.69 6.675-0.607 1.192-1.576 2.161-2.768 2.768-1.355 0.69-3.128 0.69-6.675 0.69h-7.733c-3.547 0-5.321 0-6.675-0.69-1.192-0.607-2.161-1.576-2.768-2.768-0.69-1.355-0.69-3.128-0.69-6.675v-7.733z"></path>
<path fill="#000" style="fill: var(--color8, #000)" opacity="0.78" d="M9.867 16.4c-3.9 2.87-4.667 7.067-4.667 10.567 0.178-1.044 0.993-3.493 2.833-4.933 2.733-2.139 7.733-1.434 13.2-5.067s6-8.367 5.3-12c-0.486 3.506-2.146 5.034-4.433 6.4-4.967 2.967-8.067 1.967-12.233 5.033z"></path>
<path fill="#000" style="fill: var(--color8, #000)" opacity="0.78" d="M9.867 16.4c-3.9 2.87-4.667 7.067-4.667 10.567 0.178-1.044 0.993-3.493 2.833-4.933 2.733-2.139 7.733-1.434 13.2-5.067s6-8.367 5.3-12c-0.486 3.506-2.146 5.034-4.433 6.4-4.967 2.967-8.067 1.967-12.233 5.033z"></path>
<path fill="#000" style="fill: var(--color8, #000)" opacity="0.78" d="M5.247 25.532c0.214-3.162 1.241-6.645 4.62-9.132 2.172-1.599 4.054-2.092 6.062-2.619 1.172-0.307 2.386-0.626 3.727-1.182-0.489 0.467-2.812 1.557-4.564 2.285-1.748 0.726-3.59 1.492-5.125 2.515-3.078 2.052-4.33 5.622-4.72 8.132z"></path>
<path fill="#000" style="fill: var(--color8, #000)" opacity="0.78" d="M5.247 25.532c0.214-3.162 1.241-6.645 4.62-9.132 2.172-1.599 4.054-2.092 6.062-2.619 1.172-0.307 2.386-0.626 3.727-1.182-0.489 0.467-2.812 1.557-4.564 2.285-1.748 0.726-3.59 1.492-5.125 2.515-3.078 2.052-4.33 5.622-4.72 8.132z"></path>
<path fill="#000" style="fill: var(--color8, #000)" opacity="0.78" d="M24.218 14.371c-0.383 0.375-0.811 0.712-1.284 0.996-2.133 1.28-4.401 1.693-6.607 2.095-1.758 0.32-3.478 0.633-5.059 1.372-3.566 1.667-5.766 5.133-6.067 8.133 0 0-0 0-0 0s-0-0.001-0-0.002c0-0.229 0.003-0.461 0.011-0.695 0.018-0.372 0.057-0.784 0.12-1.223 0.471-2.467 1.751-5.723 4.636-7.646 1.221-0.814 2.637-1.465 4.046-2.063 1.239-0.407 2.355-0.66 3.419-0.901 1.674-0.38 3.218-0.729 4.902-1.602 3.534-1.831 4.46-5.595 4.211-7.808 0.528 2.805 0.315 6.255-2.327 9.346z"></path>
<path fill="#000" style="fill: var(--color8, #000)" opacity="0.78" d="M24.218 14.371c-0.383 0.375-0.811 0.712-1.284 0.996-2.133 1.28-4.401 1.693-6.607 2.094-1.758 0.32-3.478 0.633-5.059 1.372-2.051 0.958-3.65 2.512-4.696 4.23 0.923-1.297 2.328-2.745 4.063-3.297 1.692-0.538 3.306-0.594 4.983-0.652 0.481-0.017 0.966-0.033 1.461-0.062 1.332-0.485 2.728-1.138 4.156-2.086 1.231-0.818 2.211-1.691 2.984-2.596z"></path>
<path fill="#000" style="fill: var(--color8, #000)" opacity="0.78" d="M24.218 14.371c-0.383 0.375-0.811 0.712-1.284 0.996-2.133 1.28-4.401 1.693-6.607 2.094-1.758 0.32-3.478 0.633-5.059 1.372-2.051 0.958-3.65 2.512-4.696 4.23 0.923-1.297 2.328-2.745 4.063-3.297 1.692-0.538 3.306-0.594 4.983-0.652 0.481-0.017 0.966-0.033 1.461-0.062 1.332-0.485 2.728-1.138 4.156-2.086 1.231-0.818 2.211-1.691 2.984-2.596z"></path>
<path fill="#000" style="fill: var(--color8, #000)" opacity="0.78" d="M26.544 5.025c-0.004-0.020-0.007-0.039-0.011-0.058-0.486 3.506-2.146 5.034-4.433 6.4-0.866 0.518-1.676 0.914-2.444 1.233-0.489 0.467-2.812 1.557-4.564 2.285l-0 0c-0.357 0.148-0.717 0.298-1.078 0.451 1.239-0.407 2.355-0.66 3.419-0.901 1.674-0.38 3.218-0.729 4.902-1.602 3.534-1.831 4.46-5.595 4.211-7.808z"></path>
<path fill="#000" style="fill: var(--color8, #000)" opacity="0.78" d="M26.544 5.025c-0.004-0.020-0.007-0.039-0.011-0.058-0.486 3.506-2.146 5.034-4.433 6.4-0.866 0.518-1.676 0.914-2.444 1.233-0.489 0.467-2.812 1.557-4.564 2.285l-0 0c-0.357 0.148-0.717 0.298-1.078 0.451 1.239-0.407 2.355-0.66 3.419-0.901 1.674-0.38 3.218-0.729 4.902-1.602 3.534-1.831 4.46-5.595 4.211-7.808z"></path>
</symbol>
<symbol id="icon-sketch" viewBox="0 0 36 32">
<path fill="#fdb300" style="fill: var(--color10, #fdb300)" d="M17.965 0l-10.126 1.051-7.839 10.333 17.965 20.541 17.965-20.541-7.839-10.333-10.126-1.051z"></path>
<path fill="#eb6c00" style="fill: var(--color11, #eb6c00)" d="M0 11.384l17.965 20.541-10.688-20.541h-7.277z"></path>
<path fill="#eb6c00" style="fill: var(--color11, #eb6c00)" d="M28.653 11.384l-10.688 20.541 17.965-20.541h-7.277z"></path>
<path fill="#fdad00" style="fill: var(--color12, #fdad00)" d="M7.277 11.384l10.688 20.541 10.688-20.541h-21.377z"></path>
<path fill="#fdd231" style="fill: var(--color13, #fdd231)" d="M7.839 1.051l-0.563 10.333 10.688-11.384-10.126 1.051z"></path>
<path fill="#fdd231" style="fill: var(--color13, #fdd231)" d="M28.653 11.384l-0.562-10.333-10.126-1.051 10.688 11.384z"></path>
<path fill="#fdad00" style="fill: var(--color12, #fdad00)" d="M28.653 11.384h7.277l-7.839-10.333 0.563 10.333z"></path>
<path fill="#fdad00" style="fill: var(--color12, #fdad00)" d="M0 11.384h7.277l0.563-10.333-7.839 10.333z"></path>
<path fill="#feeeb7" style="fill: var(--color14, #feeeb7)" d="M17.965 0l-10.688 11.384h21.377l-10.688-11.384z"></path>
</symbol>
<symbol id="icon-slack" viewBox="0 0 33 32">
<path fill="#e01e5a" style="fill: var(--color15, #e01e5a)" opacity="0.78" d="M6.836 20.11c0 0.439-0.088 0.874-0.259 1.28s-0.422 0.774-0.738 1.085c-0.316 0.311-0.692 0.557-1.105 0.724s-0.856 0.254-1.304 0.253c-0.447 0-0.89-0.086-1.303-0.254s-0.788-0.414-1.104-0.725c-0.316-0.31-0.567-0.679-0.738-1.085s-0.259-0.84-0.258-1.279c-0-0.439 0.087-0.874 0.258-1.28s0.422-0.774 0.738-1.085c0.316-0.311 0.692-0.557 1.105-0.725s0.856-0.254 1.303-0.254h3.406v3.343h-0.001zM8.538 20.11c-0-0.439 0.087-0.874 0.258-1.28s0.422-0.774 0.738-1.085c0.316-0.311 0.692-0.557 1.105-0.725s0.856-0.254 1.303-0.254c0.447-0 0.89 0.086 1.303 0.254s0.789 0.414 1.105 0.725c0.316 0.31 0.567 0.679 0.738 1.085s0.259 0.841 0.258 1.28v8.358c0 0.439-0.087 0.874-0.258 1.28s-0.422 0.774-0.738 1.085-0.692 0.557-1.105 0.725c-0.413 0.168-0.856 0.254-1.303 0.254s-0.89-0.086-1.303-0.254-0.789-0.414-1.105-0.725c-0.316-0.31-0.567-0.679-0.738-1.085s-0.259-0.841-0.258-1.28v-8.358z"></path>
<path fill="#36c5f0" style="fill: var(--color16, #36c5f0)" opacity="0.78" d="M11.942 6.687c-0.447 0-0.89-0.086-1.304-0.254s-0.789-0.414-1.105-0.725c-0.316-0.311-0.567-0.679-0.738-1.085s-0.259-0.841-0.258-1.28c-0-0.439 0.088-0.874 0.258-1.28s0.422-0.774 0.738-1.085c0.316-0.31 0.692-0.557 1.105-0.725s0.856-0.254 1.303-0.254c0.447-0 0.89 0.086 1.303 0.254s0.789 0.414 1.105 0.725c0.316 0.31 0.567 0.679 0.738 1.085s0.259 0.841 0.258 1.28v3.345l-3.404-0.001zM11.942 8.383c0.447-0 0.89 0.086 1.303 0.254s0.789 0.414 1.105 0.725c0.316 0.31 0.567 0.679 0.738 1.085s0.259 0.841 0.258 1.28c0 0.439-0.087 0.874-0.258 1.28s-0.422 0.774-0.738 1.085c-0.316 0.31-0.692 0.557-1.105 0.725s-0.856 0.254-1.303 0.254h-8.538c-0.447 0-0.89-0.086-1.303-0.254s-0.788-0.414-1.105-0.724c-0.316-0.31-0.567-0.679-0.738-1.084s-0.259-0.84-0.259-1.279c-0-0.439 0.087-0.874 0.258-1.28s0.422-0.774 0.738-1.085 0.692-0.557 1.105-0.725c0.413-0.168 0.856-0.254 1.303-0.254l8.538-0.001z"></path>
<path fill="#2eb67d" style="fill: var(--color17, #2eb67d)" opacity="0.78" d="M25.587 11.726c-0-0.439 0.087-0.874 0.259-1.28s0.422-0.774 0.738-1.085c0.316-0.31 0.692-0.557 1.105-0.724s0.856-0.254 1.304-0.253c0.447-0 0.89 0.086 1.303 0.254s0.789 0.414 1.105 0.725c0.316 0.31 0.567 0.679 0.738 1.085s0.259 0.841 0.258 1.28c0 0.439-0.087 0.874-0.258 1.28s-0.422 0.774-0.738 1.085c-0.316 0.31-0.692 0.557-1.105 0.725s-0.856 0.254-1.303 0.254h-3.406v-3.343zM23.885 11.726c0 0.439-0.087 0.874-0.258 1.28s-0.422 0.774-0.738 1.085c-0.316 0.31-0.692 0.557-1.105 0.725s-0.856 0.254-1.303 0.254c-0.447 0.001-0.89-0.086-1.304-0.253s-0.789-0.414-1.105-0.724c-0.316-0.31-0.567-0.679-0.738-1.085s-0.259-0.841-0.259-1.28v-8.383c-0-0.439 0.087-0.874 0.259-1.28s0.422-0.774 0.738-1.085c0.316-0.31 0.692-0.557 1.105-0.724s0.856-0.254 1.304-0.253c0.447-0 0.89 0.086 1.303 0.254s0.789 0.414 1.105 0.725c0.316 0.31 0.567 0.679 0.738 1.085s0.259 0.841 0.258 1.28v8.383z"></path>
<path fill="#ecb22e" style="fill: var(--color18, #ecb22e)" opacity="0.78" d="M20.48 25.124c0.447-0 0.89 0.086 1.303 0.254s0.789 0.414 1.105 0.725c0.316 0.311 0.567 0.679 0.738 1.085s0.259 0.841 0.258 1.28c0.001 0.439-0.087 0.874-0.258 1.28s-0.422 0.775-0.738 1.085c-0.316 0.311-0.692 0.557-1.105 0.725s-0.856 0.254-1.304 0.254c-0.447 0-0.89-0.086-1.304-0.254s-0.789-0.414-1.105-0.725c-0.316-0.311-0.567-0.679-0.738-1.085s-0.259-0.841-0.258-1.28v-3.343h3.404zM20.48 23.452c-0.447 0-0.89-0.086-1.303-0.254s-0.789-0.414-1.105-0.725c-0.316-0.311-0.567-0.679-0.738-1.085s-0.259-0.841-0.258-1.28c-0-0.439 0.087-0.874 0.258-1.28s0.422-0.774 0.738-1.085c0.316-0.311 0.692-0.557 1.105-0.725s0.856-0.254 1.303-0.254h8.538c0.447-0 0.89 0.086 1.303 0.254s0.789 0.414 1.105 0.725c0.316 0.31 0.567 0.679 0.738 1.085s0.259 0.841 0.258 1.28c0 0.439-0.087 0.874-0.258 1.28s-0.422 0.774-0.738 1.085c-0.316 0.31-0.692 0.557-1.105 0.725s-0.856 0.254-1.303 0.254h-8.538z"></path>
</symbol>
<symbol id="icon-toolbox" viewBox="0 0 32 32">
<path fill="#000001" style="fill: var(--color19, #000001)" opacity="0.78" d="M16 32.076l14-8.011v-16.008l-14 8.010v16.009z"></path>
<path fill="#fff" style="fill: var(--color7, #fff)" opacity="0.78" d="M19 24.556v2.444l6-3.556v-2.444l-6 3.556z"></path>
<path fill="#000" style="fill: var(--color8, #000)" opacity="0.78" d="M16 0.076l-14 7.981v16.008l14 8.011v-16.009l14-8.010-14-7.981z"></path>
</symbol>
<symbol id="icon-vs-code" viewBox="0 0 33 32">
<path fill="#0065a9" style="fill: var(--color20, #0065a9)" opacity="0.78" d="M31.744 3.377l-6.776-3.179c-0.383-0.18-0.813-0.239-1.232-0.169s-0.805 0.264-1.105 0.556l-22.183 19.708c-0.597 0.53-0.596 1.445 0.002 1.975l1.812 1.605c0.237 0.21 0.541 0.332 0.861 0.346s0.634-0.082 0.889-0.27l26.713-19.747c0.896-0.662 2.183-0.040 2.183 1.056v-0.077c0-0.377-0.109-0.746-0.315-1.066s-0.5-0.575-0.849-0.739z"></path>
<path fill="#007acc" style="fill: var(--color21, #007acc)" opacity="0.78" d="M31.744 28.503l-6.776 3.179c-0.383 0.179-0.813 0.239-1.232 0.169s-0.805-0.264-1.105-0.556l-22.183-19.708c-0.597-0.53-0.596-1.445 0.002-1.975l1.812-1.605c0.237-0.21 0.541-0.332 0.861-0.346s0.634 0.082 0.889 0.27l26.713 19.747c0.896 0.662 2.183 0.040 2.183-1.057v0.077c0 0.377-0.109 0.746-0.315 1.066s-0.5 0.575-0.849 0.739z"></path>
<path fill="#1f9cf0" style="fill: var(--color22, #1f9cf0)" opacity="0.78" d="M24.946 31.685c-0.383 0.179-0.813 0.238-1.232 0.169s-0.805-0.264-1.105-0.557c0.758 0.739 2.056 0.216 2.056-0.83v-29.051c0-1.045-1.297-1.569-2.056-0.83 0.3-0.293 0.687-0.487 1.105-0.557s0.849-0.010 1.232 0.169l6.775 3.175c0.349 0.163 0.643 0.42 0.849 0.739s0.315 0.689 0.315 1.066v21.526c0 0.77-0.453 1.471-1.165 1.805l-6.775 3.175z"></path>
<path fill="#000" style="fill: var(--color8, #000)" opacity="0.195" d="M23.321 31.744c0.262 0.099 0.542 0.145 0.822 0.135s0.556-0.077 0.809-0.196l6.771-3.175c0.349-0.164 0.643-0.42 0.849-0.739s0.315-0.689 0.315-1.066v-21.526c0-0.377-0.109-0.747-0.315-1.066s-0.5-0.575-0.849-0.739l-6.771-3.175c-0.383-0.179-0.813-0.238-1.231-0.169s-0.805 0.264-1.105 0.557l-12.962 11.523-5.646-4.176c-0.255-0.188-0.569-0.284-0.888-0.27s-0.624 0.136-0.86 0.346l-1.811 1.605c-0.597 0.529-0.598 1.445-0.002 1.975l4.897 4.353-4.897 4.353c-0.596 0.53-0.596 1.445 0.002 1.975l1.811 1.605c0.236 0.21 0.541 0.332 0.86 0.346s0.634-0.082 0.889-0.27l5.646-4.176 12.962 11.523c0.2 0.196 0.44 0.348 0.705 0.449zM24.671 8.665l-9.835 7.275 9.835 7.275v-14.55z"></path>
</symbol>
<symbol id="icon-zeplin" viewBox="0 0 32 32">
<path fill="#fdbd39" style="fill: var(--color23, #fdbd39)" opacity="0.78" d="M6.316 20.168l-1.465 0.526-0.079 4.283 5.071-1.821c-1.739-0.574-3.009-1.585-3.527-2.988z"></path>
<path fill="#f69833" style="fill: var(--color24, #f69833)" opacity="0.78" d="M7.082 15.638l-5.082 1.825 2.851 3.231 1.465-0.526c-0.516-1.4-0.198-2.982 0.767-4.53z"></path>
<path fill="#fecf33" style="fill: var(--color25, #fecf33)" opacity="0.78" d="M15.635 9.457c-6.472 2.324-10.644 7.119-9.319 10.711l23.437-8.416c-1.325-3.592-7.646-4.619-14.117-2.295z"></path>
<path fill="#ee6723" style="fill: var(--color26, #ee6723)" opacity="0.78" d="M20.433 22.463c6.472-2.324 10.652-7.098 9.319-10.711l-23.437 8.416c1.333 3.613 7.646 4.619 14.117 2.295z"></path>
<path fill="#f69833" style="fill: var(--color24, #f69833)" opacity="0.78" d="M29.752 11.753l-23.437 8.416c0.459 1.244 2.209 1.857 4.664 1.857 2.394 0 5.458-0.582 8.653-1.729 6.472-2.324 11.025-6.087 10.119-8.543z"></path>
<path fill="#fdbd39" style="fill: var(--color23, #fdbd39)" opacity="0.78" d="M25.088 9.896c-2.394 0-5.458 0.582-8.653 1.729-6.472 2.324-11.025 6.086-10.119 8.543l23.437-8.416c-0.459-1.244-2.209-1.857-4.665-1.857z"></path>
<path fill="#ee6723" style="fill: var(--color26, #ee6723)" opacity="0.78" d="M23.794 25.204h-0c-0.69 0-1.707-0.612-3.024-1.82-1.558-1.428-3.342-3.521-5.025-5.891s-3.065-4.741-3.893-6.673c-0.902-2.106-1.031-3.402-0.382-3.849 0.142-0.098 0.314-0.148 0.509-0.148 0.527 0 1.555 0.386 3.455 2.225l0.042 0.040-0.006 0.057c-0.013 0.132-0.025 0.265-0.036 0.396l-0.021 0.26-0.186-0.185c-2.047-2.027-2.949-2.246-3.241-2.246-0.083 0-0.15 0.017-0.197 0.050-0.281 0.194-0.299 1.146 0.575 3.187 0.813 1.898 2.175 4.233 3.836 6.572s3.418 4.401 4.948 5.804c1.65 1.513 2.393 1.676 2.636 1.676 0.084 0 0.152-0.018 0.203-0.053 0.297-0.205 0.297-1.224-0.678-3.422l-0.045-0.101 0.098-0.053c0.098-0.053 0.193-0.105 0.282-0.154l0.117-0.066 0.054 0.122c0.691 1.557 1.338 3.537 0.49 4.122-0.143 0.099-0.315 0.149-0.512 0.149zM23.793 24.964v0z"></path>
<path fill="#ee6723" style="fill: var(--color26, #ee6723)" opacity="0.78" d="M20.59 22.398l-0.010 0.12c-0.164 1.99-0.594 4.383-1.718 4.479-0.023 0.002-0.046 0.003-0.069 0.003-0.763 0-1.485-1.075-2.146-3.194-0.625-2.005-1.11-4.697-1.366-7.581s-0.252-5.617 0.011-7.7c0.286-2.269 0.831-3.454 1.62-3.522 0.023-0.002 0.047-0.003 0.071-0.003 0.554 0 1.388 0.616 2.242 3.486l-0.558 0.106c-0.285-0.959-0.596-1.739-0.904-2.275-0.285-0.496-0.563-0.769-0.781-0.769-0.007 0-0.014 0-0.021 0.001-0.342 0.029-0.84 0.844-1.117 3.044-0.258 2.045-0.261 4.739-0.009 7.584s0.73 5.498 1.344 7.468c0.275 0.882 0.576 1.609 0.872 2.102 0.273 0.455 0.536 0.705 0.743 0.705 0.007 0 0.014-0 0.021-0.001 0.327-0.028 0.943-0.876 1.203-3.86l0.573-0.193z"></path>
</symbol>
</defs>
</svg>
